<?xml version="1.0" encoding="UTF-8"?>
<svg id="uuid-682a8dd1-e1ee-4a7e-b497-2b0218db9bbf" data-name="레이어 2" xmlns="http://www.w3.org/2000/svg" viewBox="0 0 1038.99 446.5">
  <g id="uuid-d7cb3ea4-9ac7-40a7-904b-ebb08eb4b9b0" data-name="대지 1" style="isolation: isolate;">
    <g id="uuid-4fbe6826-2f8e-45b0-9de5-aefb3e19e5e6" data-name="선 2">
      <rect x="142.73" y="44.25" width="13.88" height=".6" style="fill: none; stroke: #5e6285; stroke-miterlimit: 100; stroke-width: 3px;"/>
    </g>
    <g id="uuid-7c31c512-a2f6-47fe-ad6f-329fa89366d4" data-name="선 2 복사">
      <rect x="142.73" y="59.93" width="13.88" height=".6" style="fill: none; stroke: #5e6285; stroke-miterlimit: 100; stroke-width: 3px;"/>
    </g>
    <g id="uuid-e447e17e-ac50-415a-9ed6-940d35424ea1" data-name="선 2 복사 2">
      <rect x="142.73" y="75.02" width="13.88" height=".6" style="fill: none; stroke: #5e6285; stroke-miterlimit: 100; stroke-width: 3px;"/>
    </g>
    <g id="uuid-476ee69d-8f47-401b-8d09-d32be23f4766" data-name="선 2 복사 3">
      <rect x="142.73" y="90.71" width="13.88" height=".6" style="fill: none; stroke: #5e6285; stroke-miterlimit: 100; stroke-width: 3px;"/>
    </g>
    <g id="uuid-5faa7544-2fb3-4fad-8a9f-22e6a7e50919" data-name="선 2 복사 4">
      <rect x="125.83" y="105.79" width="30.77" height=".6" style="fill: none; stroke: #5e6285; stroke-miterlimit: 100; stroke-width: 3px;"/>
    </g>
    <g id="uuid-14c350bf-51bd-459f-88c8-4204527af4ea" data-name="선 2 복사 5">
      <rect x="142.73" y="121.48" width="13.88" height=".6" style="fill: none; stroke: #5e6285; stroke-miterlimit: 100; stroke-width: 3px;"/>
    </g>
    <g id="uuid-a1372b9a-20c2-4c9e-8d87-8f746a24ea7a" data-name="선 2 복사 6">
      <rect x="143.33" y="136.57" width="13.88" height=".6" style="fill: none; stroke: #5e6285; stroke-miterlimit: 100; stroke-width: 3px;"/>
    </g>
    <g id="uuid-0484102c-fe0c-4d41-80d2-c6e0e9e7382e" data-name="선 2 복사 7">
      <rect x="143.33" y="152.26" width="13.88" height=".6" style="fill: none; stroke: #5e6285; stroke-miterlimit: 100; stroke-width: 3px;"/>
    </g>
    <g id="uuid-5aa93dd4-16cc-4cd9-994b-925eec4aaeb7" data-name="선 2 복사 8">
      <rect x="143.33" y="167.34" width="13.88" height=".6" style="fill: none; stroke: #5e6285; stroke-miterlimit: 100; stroke-width: 3px;"/>
    </g>
    <g id="uuid-020a1905-7ff7-43f1-937c-260e55ce3c85" data-name="선 2 복사 9">
      <rect x="797.08" y="45.09" width="13.88" height=".6" style="fill: none; stroke: #5e6285; stroke-miterlimit: 100; stroke-width: 3px;"/>
    </g>
    <g id="uuid-fbcea8ab-f0ff-41ae-b533-40ff3f49b992" data-name="선 2 복사 9">
      <rect x="797.08" y="60.78" width="13.88" height=".6" style="fill: none; stroke: #5e6285; stroke-miterlimit: 100; stroke-width: 3px;"/>
    </g>
    <g id="uuid-68bce863-62cc-4706-a213-540533f4805b" data-name="선 2 복사 9">
      <rect x="797.08" y="75.87" width="13.88" height=".6" style="fill: none; stroke: #5e6285; stroke-miterlimit: 100; stroke-width: 3px;"/>
    </g>
    <g id="uuid-1ff12236-2aa5-4e27-96e3-3ee395237302" data-name="선 2 복사 9">
      <rect x="797.08" y="91.55" width="13.88" height=".6" style="fill: none; stroke: #5e6285; stroke-miterlimit: 100; stroke-width: 3px;"/>
    </g>
    <g id="uuid-cad7ed38-bc27-4cc8-b2a9-47f0058aed71" data-name="선 2 복사 9">
      <rect x="780.18" y="106.64" width="30.77" height=".6" style="fill: none; stroke: #5e6285; stroke-miterlimit: 100; stroke-width: 3px;"/>
    </g>
    <g id="uuid-830f6956-a51e-47ae-bf02-89e4321e5481" data-name="선 2 복사 9">
      <rect x="797.08" y="122.33" width="13.88" height=".6" style="fill: none; stroke: #5e6285; stroke-miterlimit: 100; stroke-width: 3px;"/>
    </g>
    <g id="uuid-3f756045-e42e-4780-aba1-d6dac4c0677d" data-name="선 2 복사 9">
      <rect x="797.68" y="137.41" width="13.88" height=".6" style="fill: none; stroke: #5e6285; stroke-miterlimit: 100; stroke-width: 3px;"/>
    </g>
    <g id="uuid-d44effdf-4f5e-4491-bbc7-99cbec2edb23" data-name="선 2 복사 9">
      <rect x="797.68" y="153.1" width="13.88" height=".6" style="fill: none; stroke: #5e6285; stroke-miterlimit: 100; stroke-width: 3px;"/>
    </g>
    <g id="uuid-f38b854a-79aa-4aa3-884b-68bd21e37e07" data-name="선 2 복사 9">
      <rect x="797.68" y="168.19" width="13.88" height=".6" style="fill: none; stroke: #5e6285; stroke-miterlimit: 100; stroke-width: 3px;"/>
    </g>
    <g id="uuid-545f18c1-0927-4d38-9523-a70aacecab49" data-name="선 2 복사 10">
      <rect x="851.43" y="297.81" width="22.12" height=".6" style="fill: none; stroke: #5e6285; stroke-miterlimit: 100; stroke-width: 3px;"/>
    </g>
    <g id="uuid-427fe30f-a2d3-4140-a444-942e8bfcc751" data-name="선 2 복사 10">
      <rect x="851.43" y="313.52" width="22.12" height=".6" style="fill: none; stroke: #5e6285; stroke-miterlimit: 100; stroke-width: 3px;"/>
    </g>
    <g id="uuid-321c1f13-9331-4588-adfa-1c8ae0283272" data-name="선 2 복사 10">
      <rect x="851.43" y="328.63" width="22.12" height=".6" style="fill: none; stroke: #5e6285; stroke-miterlimit: 100; stroke-width: 3px;"/>
    </g>
    <g id="uuid-696d37ae-5db7-4d2a-af61-5d1ef8ccbca0" data-name="선 2 복사 10">
      <rect x="851.43" y="344.34" width="22.12" height=".6" style="fill: none; stroke: #5e6285; stroke-miterlimit: 100; stroke-width: 3px;"/>
    </g>
    <g id="uuid-55f7a821-10b1-4703-b165-9dc3707bf5db" data-name="선 2 복사 10">
      <rect x="824.5" y="359.45" width="49.04" height=".6" style="fill: none; stroke: #5e6285; stroke-miterlimit: 100; stroke-width: 3px;"/>
    </g>
    <g id="uuid-27a2bccb-72bf-4f26-8194-4d1f096e6673" data-name="선 2 복사 10">
      <rect x="851.43" y="375.17" width="22.12" height=".6" style="fill: none; stroke: #5e6285; stroke-miterlimit: 100; stroke-width: 3px;"/>
    </g>
    <g id="uuid-9512b9d4-d927-49ca-a964-ab92cad6e0a4" data-name="선 2 복사 10">
      <rect x="852.39" y="390.28" width="22.12" height=".6" style="fill: none; stroke: #5e6285; stroke-miterlimit: 100; stroke-width: 3px;"/>
    </g>
    <g id="uuid-930ce875-e622-4cb6-9af4-1bced8e5b3df" data-name="선 2 복사 10">
      <rect x="852.39" y="405.99" width="22.12" height=".6" style="fill: none; stroke: #5e6285; stroke-miterlimit: 100; stroke-width: 3px;"/>
    </g>
    <g id="uuid-8c421a1b-4129-4227-8bee-35147494ce31" data-name="선 2 복사 10">
      <rect x="852.39" y="421.1" width="22.12" height=".6" style="fill: none; stroke: #5e6285; stroke-miterlimit: 100; stroke-width: 3px;"/>
    </g>
    <g id="uuid-40035027-d802-4c82-8f01-eefac3aad930" data-name="선 2 복사 9">
      <rect x="383.52" y="326.55" width="23.74" height=".47" style="fill: none; stroke: #5e6285; stroke-miterlimit: 100; stroke-width: 3px;"/>
    </g>
    <g id="uuid-ffcff58e-3dca-461b-98cc-5bec3fce272d" data-name="선 2 복사 9">
      <rect x="383.52" y="338.88" width="23.74" height=".47" style="fill: none; stroke: #5e6285; stroke-miterlimit: 100; stroke-width: 3px;"/>
    </g>
    <g id="uuid-6b08e4d8-ee05-439f-9b57-484f18f3fa21" data-name="선 2 복사 9">
      <rect x="383.52" y="350.72" width="23.74" height=".47" style="fill: none; stroke: #5e6285; stroke-miterlimit: 100; stroke-width: 3px;"/>
    </g>
    <g id="uuid-828e75a6-0aee-482c-88fc-f568a1f90bde" data-name="선 2 복사 9">
      <rect x="383.52" y="363.05" width="23.74" height=".47" style="fill: none; stroke: #5e6285; stroke-miterlimit: 100; stroke-width: 3px;"/>
    </g>
    <g id="uuid-21122e9a-fd85-4488-9669-14baabf50e29" data-name="선 2 복사 9">
      <rect x="354.63" y="374.89" width="52.63" height=".47" style="fill: none; stroke: #5e6285; stroke-miterlimit: 100; stroke-width: 3px;"/>
    </g>
    <g id="uuid-3d1f76a6-4b6f-4cc2-95cb-65b1c5824419" data-name="선 2 복사 9">
      <rect x="383.52" y="387.21" width="23.74" height=".47" style="fill: none; stroke: #5e6285; stroke-miterlimit: 100; stroke-width: 3px;"/>
    </g>
    <g id="uuid-2cab29c4-139c-4dd9-b316-cd5ac30c2490" data-name="선 2 복사 9">
      <rect x="384.55" y="399.06" width="23.74" height=".47" style="fill: none; stroke: #5e6285; stroke-miterlimit: 100; stroke-width: 3px;"/>
    </g>
    <g id="uuid-bd589150-352a-4c03-9b46-8eb2a71e59ca" data-name="선 2 복사 9">
      <rect x="384.55" y="411.38" width="23.74" height=".47" style="fill: none; stroke: #5e6285; stroke-miterlimit: 100; stroke-width: 3px;"/>
    </g>
    <g id="uuid-d65b02e5-c1ca-4f8e-9bba-1007e05d38e3" data-name="선 2 복사 9">
      <rect x="384.55" y="423.23" width="23.74" height=".47" style="fill: none; stroke: #5e6285; stroke-miterlimit: 100; stroke-width: 3px;"/>
    </g>
    <g id="uuid-970faf51-ad2b-4388-8f3b-498cae3ef18b" data-name="P">
      <polyline points="12.86 390.37 12.86 21.57 12.86 4.07 75.3 4.07 75.3 10.35 29.32 10.35 20.03 10.35 20.03 394.67 12.86 390.37" style="fill: #8ad2ff; fill-rule: evenodd; stroke: #8ad2ff; stroke-miterlimit: 100; stroke-width: 3px;"/>
      <polygon points="275.25 307.55 275.25 260.46 275.25 248.19 754.82 248.19 754.82 236.79 754.82 186.25 747.55 186.25 747.55 232.17 747.55 240.84 268.3 240.76 268.3 258.09 268.3 307.47 275.25 307.55" style="fill: #ffb4d6; stroke: #ffb4d6; stroke-miterlimit: 100; stroke-width: 3px;"/>
      <polygon points="882.53 357.89 934.9 357.89 934.9 374.31 934.9 393.66 927.4 393.66 927.4 375.71 927.2 365.31 883.73 365.31 877.74 365.2 877.74 357.89 882.53 357.89" style="fill: #8ad2ff; fill-rule: evenodd; stroke: #8ad2ff; stroke-miterlimit: 100; stroke-width: 3px;"/>
      <polyline points="643.31 287.66 531.03 287.66 531.03 304.09 531.03 323.43 538.52 323.43 538.52 305.49 538.52 295.08 642.11 295.08" style="fill: #8ad2ff; fill-rule: evenodd; stroke: #8ad2ff; stroke-miterlimit: 100; stroke-width: 3px;"/>
      <polyline points="877.74 365.2 973.44 365.31 1016.9 365.31 1017.11 375.71 1017.11 393.66 1024.6 393.66 1024.6 374.31 1024.6 357.89 972.23 357.89 877.74 357.89" style="fill: #8ad2ff; fill-rule: evenodd; stroke: #8ad2ff; stroke-miterlimit: 100; stroke-width: 3px;"/>
      <polyline points="644.57 409.89 699.43 409.51 699.43 402.09 639.09 402.09" style="fill: #8ad2ff; fill-rule: evenodd; stroke: #8ad2ff; stroke-miterlimit: 100; stroke-width: 3px;"/>
      <polyline points="546.99 337.69 696.63 337.32 696.63 329.9 537.7 329.9" style="fill: #8ad2ff; fill-rule: evenodd; stroke: #8ad2ff; stroke-miterlimit: 100; stroke-width: 3px;"/>
      <polygon points="638.49 395.26 638.49 20.87 638.49 1.5 725.42 1.5 725.52 8.82 645.98 8.82 645.98 21.09 645.98 395.26 638.49 395.26" style="fill: #8ad2ff; fill-rule: evenodd; stroke: #8ad2ff; stroke-miterlimit: 100; stroke-width: 3px;"/>
      <rect x="68.17" y="5.38" width="7.17" height="16.8" style="fill: #8ad2ff; stroke: #8ad2ff; stroke-miterlimit: 100; stroke-width: 3px;"/>
      <rect x="725.52" y="1.5" width="7.17" height="20.68" style="fill: #8ad2ff; stroke: #8ad2ff; stroke-miterlimit: 100; stroke-width: 3px;"/>
    </g>
    <g id="uuid-b183eb60-9d60-4ae6-be0a-9d05603cacd0" data-name="사각형 1 복사 4">
      <rect x="698.93" y="281.19" width="175.17" height="156.53" rx="6.03" ry="6.03" style="fill: none; stroke: #5e6285; stroke-miterlimit: 100; stroke-width: 8px;"/>
    </g>
    <path d="m252.89,314.13h-22.72c-5.69,0-10.3,3.59-10.3,8.03v106.08c0,4.43,4.61,8.03,10.3,8.03h166.79c5.69,0,10.3-3.59,10.3-8.03v-106.08c0-4.43-4.61-8.03-10.3-8.03h-110.12" style="fill: none; fill-rule: evenodd; stroke: #5e6285; stroke-miterlimit: 100; stroke-width: 8px;"/>
    <path d="m61.09,27.65h-8.01c-3.33,0-6.03,2.7-6.03,6.03v144.22c0,3.33,2.7,6.03,6.03,6.03h97.85c3.33,0,6.03-2.7,6.03-6.03V33.69c0-3.33-2.7-6.03-6.03-6.03h-54.39" style="fill: none; fill-rule: evenodd; stroke: #5e6285; stroke-miterlimit: 100; stroke-width: 8px;"/>
    <path d="m717.51,27.89h-8.01c-3.33,0-6.03,2.7-6.03,6.03v144.22c0,3.33,2.7,6.03,6.03,6.03h97.85c3.33,0,6.03-2.7,6.03-6.03V33.93c0-3.33-2.7-6.03-6.03-6.03h-54.39" style="fill: none; fill-rule: evenodd; stroke: #5e6285; stroke-miterlimit: 100; stroke-width: 8px;"/>
    <g>
      <g id="uuid-5e01ff64-6e15-4fd3-9219-6d05c98243c6" data-name="타원 2">
        <path d="m17.37,388.73C7.89,388.52-.08,396.17,0,406.1c.08,9.59,7.78,17.37,17.37,17.37s17.37-7.78,17.37-17.37-7.78-17.17-17.37-17.37Z" style="fill: #5e6285; fill-rule: evenodd; stroke-width: 0px;"/>
      </g>
      <g id="uuid-30ef9953-e21b-44fb-89e8-c944b419c5f5" data-name="삼각형 1">
        <path d="m32.21,441.72l-12.59-17.54c-1.2-1.68-3.7-1.68-4.9,0l-12.59,17.54c-1.43,2,0,4.78,2.45,4.78h25.18c2.46,0,3.88-2.78,2.45-4.78Z" style="fill: #5e6285; fill-rule: evenodd; stroke-width: 0px;"/>
      </g>
      <path d="m12.66,398.53h5.74c1.09,0,2.04.21,2.83.62.79.42,1.4,1,1.81,1.75s.62,1.61.62,2.58-.21,1.84-.63,2.58c-.42.74-1.03,1.32-1.83,1.73-.8.42-1.76.62-2.87.62h-3.69v-2.45h3.21c.59,0,1.08-.1,1.48-.31.4-.21.7-.5.9-.87s.29-.81.29-1.31-.1-.93-.29-1.3-.5-.65-.9-.85-.9-.3-1.49-.3h-2.14v12.17h-3.04v-14.67Z" style="fill: #fefefe; stroke-width: 0px;"/>
    </g>
    <g>
      <g id="uuid-bd1b7fce-5c2b-44a7-a1ef-f60969fe4ede" data-name="타원 2">
        <path d="m535.75,315.56c-10.01,0-17.46,7.44-17.37,17.37.08,9.59,7.78,17.37,17.37,17.37s17.37-7.78,17.37-17.37-7.78-17.37-17.37-17.37Z" style="fill: #5e6285; fill-rule: evenodd; stroke-width: 0px;"/>
      </g>
      <g id="uuid-fb2c5bf0-b959-4f36-8aab-a36c5db4cbef" data-name="삼각형 1">
        <path d="m550.58,368.55l-12.59-17.54c-1.2-1.68-3.7-1.68-4.9,0l-12.59,17.54c-1.43,2,0,4.78,2.45,4.78h25.18c2.46,0,3.88-2.78,2.45-4.78Z" style="fill: #5e6285; fill-rule: evenodd; stroke-width: 0px;"/>
      </g>
      <path d="m531.03,325.37h5.74c1.09,0,2.04.21,2.83.62s1.4,1,1.81,1.75.62,1.61.62,2.58-.21,1.84-.63,2.58c-.42.74-1.03,1.32-1.83,1.73-.8.42-1.76.62-2.87.62h-3.69v-2.45h3.21c.59,0,1.08-.1,1.49-.31.4-.21.7-.5.9-.87.2-.37.29-.81.29-1.31s-.1-.93-.29-1.3c-.2-.37-.5-.65-.9-.85s-.9-.3-1.49-.3h-2.14v12.17h-3.04v-14.67Z" style="fill: #fefefe; stroke-width: 0px;"/>
    </g>
    <g>
      <g id="uuid-349e3fe4-1f85-4b4a-8500-e3767161ed2d" data-name="타원 2">
        <path d="m642.71,388.27c-9.55,0-17.46,7.44-17.37,17.37.08,9.59,7.78,17.37,17.37,17.37s17.37-7.78,17.37-17.37-7.78-17.37-17.37-17.37Z" style="fill: #5e6285; fill-rule: evenodd; stroke-width: 0px;"/>
      </g>
      <g id="uuid-cd0a6028-13db-4f17-a319-4069e68c9eec" data-name="삼각형 1">
        <path d="m657.55,441.26l-12.59-17.54c-1.2-1.68-3.7-1.68-4.9,0l-12.59,17.54c-1.43,2,0,4.78,2.45,4.78h25.18c2.46,0,3.88-2.78,2.45-4.78Z" style="fill: #5e6285; fill-rule: evenodd; stroke-width: 0px;"/>
      </g>
      <path d="m637.99,398.07h5.74c1.09,0,2.04.21,2.83.62s1.4,1,1.81,1.75.62,1.61.62,2.58-.21,1.84-.63,2.58c-.42.74-1.03,1.32-1.83,1.73-.8.42-1.76.62-2.87.62h-3.69v-2.45h3.21c.59,0,1.08-.1,1.48-.31.4-.21.7-.5.9-.87s.29-.81.29-1.31-.1-.93-.29-1.3-.5-.65-.9-.85-.9-.3-1.49-.3h-2.14v12.17h-3.04v-14.67Z" style="fill: #fefefe; stroke-width: 0px;"/>
    </g>
    <g>
      <g id="uuid-a014efeb-da8c-4fe7-be5b-a266d620ca7a" data-name="타원 2">
        <path d="m930.93,388.27c-10.07,0-17.46,7.44-17.37,17.37.08,9.59,7.78,17.37,17.37,17.37s17.37-7.78,17.37-17.37-7.78-17.37-17.37-17.37Z" style="fill: #5e6285; fill-rule: evenodd; stroke-width: 0px;"/>
      </g>
      <g id="uuid-6955e66d-ad89-47d3-99ae-714895303064" data-name="삼각형 1">
        <path d="m945.76,441.26l-12.59-17.54c-1.2-1.68-3.7-1.68-4.9,0l-12.59,17.54c-1.43,2,0,4.78,2.45,4.78h25.18c2.46,0,3.88-2.78,2.45-4.78Z" style="fill: #5e6285; fill-rule: evenodd; stroke-width: 0px;"/>
      </g>
      <path d="m926.21,398.07h5.74c1.09,0,2.04.21,2.83.62s1.4,1,1.81,1.75.62,1.61.62,2.58-.21,1.84-.63,2.58c-.42.74-1.03,1.32-1.83,1.73-.8.42-1.76.62-2.87.62h-3.69v-2.45h3.21c.59,0,1.08-.1,1.48-.31.4-.21.7-.5.9-.87s.29-.81.29-1.31-.1-.93-.29-1.3-.5-.65-.9-.85-.9-.3-1.49-.3h-2.14v12.17h-3.04v-14.67Z" style="fill: #fefefe; stroke-width: 0px;"/>
    </g>
    <g>
      <g id="uuid-e8a54cc1-4f2b-4ab0-917d-0cb2a281345a" data-name="타원 2">
        <path d="m1021.62,388.27c-10.04,0-17.46,7.44-17.37,17.37.08,9.59,7.78,17.37,17.37,17.37s17.37-7.78,17.37-17.37-7.78-17.37-17.37-17.37Z" style="fill: #5e6285; fill-rule: evenodd; stroke-width: 0px;"/>
      </g>
      <g id="uuid-495949fc-cc7b-4737-89c8-e31e4cdc8327" data-name="삼각형 1">
        <path d="m1036.46,441.26l-12.59-17.54c-1.2-1.68-3.7-1.68-4.9,0l-12.59,17.54c-1.43,2,0,4.78,2.45,4.78h25.18c2.46,0,3.88-2.78,2.45-4.78Z" style="fill: #5e6285; fill-rule: evenodd; stroke-width: 0px;"/>
      </g>
      <path d="m1016.9,398.07h5.74c1.09,0,2.04.21,2.83.62s1.4,1,1.81,1.75.62,1.61.62,2.58-.21,1.84-.63,2.58c-.42.74-1.03,1.32-1.83,1.73-.8.42-1.76.62-2.87.62h-3.69v-2.45h3.21c.59,0,1.08-.1,1.48-.31.4-.21.7-.5.9-.87s.29-.81.29-1.31-.1-.93-.29-1.3-.5-.65-.9-.85-.9-.3-1.49-.3h-2.14v12.17h-3.04v-14.67Z" style="fill: #fefefe; stroke-width: 0px;"/>
    </g>
    <polygon points="393.46 244.11 377.66 228.2 377.66 260.03 393.46 244.11" style="fill: none; fill-rule: evenodd; stroke: #ff65a9; stroke-miterlimit: 100; stroke-width: 3px;"/>
    <polygon points="393.46 244.11 409.26 228.2 409.26 260.03 393.46 244.11" style="fill: none; fill-rule: evenodd; stroke: #ff65a9; stroke-miterlimit: 100; stroke-width: 3px;"/>
  </g>
</svg>